{"title":"The Worlds End 2013 BRRip 720p x264 AAC - PRiSTiNE [P2PDL]","uid":9158229,"size":740677799,"categoryP":"video","categoryS":"hd___movies","magnet":"?xt=urn:btih:b0387b00ca8f2326fb72243e99cce74bcfeff0fc&amp;dn=The+Worlds+End+2013+BRRip+720p+x264+AAC+-+PRiSTiNE+%5BP2PDL%5D&amp;tr=udp%3A%2F%2Ftracker.openbittorrent.com%3A80&amp;tr=udp%3A%2F%2Fopen.demonii.com%3A1337&amp;tr=udp%3A%2F%2Ftracker.coppersurfer.tk%3A6969&amp;tr=udp%3A%2F%2Fexodus.desync.com%3A6969","seeders":2,"leechers":0,"uploader":"ValidusVyto","files":-1,"time":1383823940,"description":"_______ Visit us at our Semi Public Bittorrent Community ________\n  &lt;a href=&quot;\nhttp://p2pdl.com&quot; rel=&quot;nofollow&quot; target=&quot;_NEW&quot;&gt;\nhttp://p2pdl.com&lt;/a&gt;  _____________________________ &lt;a href=&quot; http://p2pdl.com&quot; rel=&quot;nofollow&quot; target=&quot;_NEW&quot;&gt; http://p2pdl.com&lt;/a&gt;\n\n\n\nThe Worlds End 2013 BRRip 720p x264 AAC - PRiSTiNE\n\n\nGenre: Action | Comedy | Sci-Fi \nPlot: Five friends who reunite in an attempt to top their epic pub crawl from 20 years\nearlier unwittingly become humankind's only hope for survival. \nDirector: Edgar Wright\nStars: Simon Pegg, Nick Frost, Martin Freeman.\nRated: R for pervasive language including sexual references.\n\n\nIMDb: &lt;a href=&quot;\nhttp://www.imdb.com/title/tt1213663/&quot; rel=&quot;nofollow&quot; target=&quot;_NEW&quot;&gt;\nhttp://www.imdb.com/title/tt1213663/&lt;/a&gt;\n\nTrailer:\n\n\nFormat                         : MPEG-4\nFile size                      : 696 MiB\nDuration                       : 1h 49mn\nOverall bit rate               : 892 Kbps\n\nVideo\nFormat                         : AVC\nBit rate                       : 810 Kbps\nWidth                          : 1 280 pixels\nHeight                         : 544 pixels\nDisplay aspect ratio           : 2.35:1\nFrame rate mode                : Constant\nFrame rate                     : 23.976 fps\nBit depth                      : 10 bits\nStream size                    : 632 MiB (91%)\nWriting library                : x264 core 138 r2358\n\nAudio\nFormat                         : AAC\nBit rate mode                  : Variable\nBit rate                       : 79.9 Kbps\nChannel count                  : 2 channels\nChannel positions              : Front: L R\nSampling rate                  : 48.0 KHz\nStream size                    : 62.4 MiB (9%)\nLanguage                       : English\nSubtitle                       : Yes (English)\n\nSource                         : 720p.BluRay.x264-SPARKS\n &lt;a href=&quot;\nhttp://someimage.com/hzA5FmG&quot; rel=&quot;nofollow&quot; target=&quot;_NEW&quot;&gt;\nhttp://someimage.com/hzA5FmG&lt;/a&gt; &lt;a href=&quot;\nhttp://someimage.com/J5uhVn2&quot; rel=&quot;nofollow&quot; target=&quot;_NEW&quot;&gt;\nhttp://someimage.com/J5uhVn2&lt;/a&gt; &lt;a href=&quot;\nhttp://someimage.com/II8jZPA&quot; rel=&quot;nofollow&quot; target=&quot;_NEW&quot;&gt;\nhttp://someimage.com/II8jZPA&lt;/a&gt; &lt;a href=&quot;\nhttp://someimage.com/yL3VoUR&quot; rel=&quot;nofollow&quot; target=&quot;_NEW&quot;&gt;\nhttp://someimage.com/yL3VoUR&lt;/a&gt; &lt;a href=&quot;\nhttp://someimage.com/zN3HdtD&quot; rel=&quot;nofollow&quot; target=&quot;_NEW&quot;&gt;\nhttp://someimage.com/zN3HdtD&lt;/a&gt; &lt;a href=&quot;\nhttp://someimage.com/IGaiBvp&quot; rel=&quot;nofollow&quot; target=&quot;_NEW&quot;&gt;\nhttp://someimage.com/IGaiBvp&lt;/a&gt; &lt;a href=&quot;\nhttp://someimage.com/nIiWgg6&quot; rel=&quot;nofollow&quot; target=&quot;_NEW&quot;&gt;\nhttp://someimage.com/nIiWgg6&lt;/a&gt; &lt;a href=&quot;\nhttp://someimage.com/5Vwuxqf&quot; rel=&quot;nofollow&quot; target=&quot;_NEW&quot;&gt;\nhttp://someimage.com/5Vwuxqf&lt;/a&gt;\n    \n\n----------------------------------------------------------------------------------------------------\n\n\nEncoded using revolutionary 10bit encoding, which enables us to provide you more crispier \nand sharper images at small sizes, just make sure you follow our instructions without a fault.\nRecommend to you to use latest version of VLC player. Install K-Lite Codec Pack or shark007 codecs\nin case of any kind of problem in playback (For non-VLC Media Player users). Alternatively, install\nCore AVC codecs, the fastest decoder that there is coupled with Community Center Codec Pack and play\non Windows Media Player Classic. Check sample to be sure.\nEnjoy!\n\nEncoder Notes:Looking For Early Access To Anything You Can Provide DVDScr, R5, DVDR, BluRay, Direct\nAudio, Music Releases and Seedboxes. We require dedicated servers, so as to do more \nand fast releases of movies.\nIf You Got anything to offer please contact us at &quot;&lt;a class=&quot;__cf_email__&quot; href=&quot;/cdn-cgi/l/email-protection&quot; data-cfemail=&quot;3f4f4d587f574a4c57115c5052&quot;&gt;[email&amp;#160;protected]&lt;/a&gt;&lt;script cf-hash='f9e31' type=&quot;text/javascript&quot;&gt;\n/* &lt;![CDATA[ */!function(){try{var t=&quot;currentScript&quot;in document?document.currentScript:function(){for(var t=document.getElementsByTagName(&quot;script&quot;),e=t.length;e--;)if(t[e].getAttribute(&quot;cf-hash&quot;))return t[e]}();if(t&amp;&amp;t.previousSibling){var e,r,n,i,c=t.previousSibling,a=c.getAttribute(&quot;data-cfemail&quot;);if(a){for(e=&quot;&quot;,r=parseInt(a.substr(0,2),16),n=2;a.length-n;n+=2)i=parseInt(a.substr(n,2),16)^r,e+=String.fromCharCode(i);e=document.createTextNode(e),c.parentNode.replaceChild(e,c)}}}catch(u){}}();/* ]]&gt; */&lt;/script&gt;&quot;.\n\nFor more of our team uploads visit @                                             &lt;a href=&quot; http://thepiratebay.se/user/vitamin_x&quot; rel=&quot;nofollow&quot; target=&quot;_NEW&quot;&gt; http://thepiratebay.se/user/vitamin_x&lt;/a&gt;\t","torrent":{"xt":"urn:btih:b0387b00ca8f2326fb72243e99cce74bcfeff0fc","amp;dn":"The+Worlds+End+2013+BRRip+720p+x264+AAC+-+PRiSTiNE+%5BP2PDL%5D","amp;tr":["udp%3A%2F%2Ftracker.openbittorrent.com%3A80","udp%3A%2F%2Fopen.demonii.com%3A1337","udp%3A%2F%2Ftracker.coppersurfer.tk%3A6969","udp%3A%2F%2Fexodus.desync.com%3A6969"],"infoHash":"b0387b00ca8f2326fb72243e99cce74bcfeff0fc","infoHashBuffer":{"type":"Buffer","data":[176,56,123,0,202,143,35,38,251,114,36,62,153,204,231,75,207,239,240,252]},"announce":[],"urlList":[]}}